<svg id="Calque_1" data-name="Calque 1" xmlns="http://www.w3.org/2000/svg" viewBox="0 0 470 197"><defs><style>.cls-1{fill:none;stroke:#000;}</style></defs><title>reportage</title><path class="cls-1" d="M45.72,45.87H63V59.45H27.79V2.25H45.72Z"/><path d="M86.6,16.47v7.11h17.77V37.07H86.6v8.08h20.2v14.3H68.67V2.25H106.8V16.47Z"/><path class="cls-1" d="M155.24,51.45a17.36,17.36,0,0,1-7.39,6.26A26.71,26.71,0,0,1,136.29,60Q126,60,119.37,55.21t-7.23-14.1H131.2q.4,4.93,4.36,4.93a3.3,3.3,0,0,0,2.22-.73,2.61,2.61,0,0,0,.85-2.1A3.56,3.56,0,0,0,136.57,40a40.7,40.7,0,0,0-6.67-2.71,61.86,61.86,0,0,1-9-3.64,18,18,0,0,1-6.26-5.49A15.6,15.6,0,0,1,112,18.73a15.63,15.63,0,0,1,2.87-9.49,17.72,17.72,0,0,1,7.84-5.94,29.49,29.49,0,0,1,11.19-2q10.26,0,16.32,4.77t6.62,13.73H137.5q-.4-4.52-3.72-4.52a2.6,2.6,0,0,0-1.86.69A2.7,2.7,0,0,0,131.2,18a3.45,3.45,0,0,0,2.06,3,42.22,42.22,0,0,0,6.42,2.71,69.11,69.11,0,0,1,9.09,3.84,18.69,18.69,0,0,1,6.3,5.57,15.47,15.47,0,0,1,2.71,9.41A16.08,16.08,0,0,1,155.24,51.45Z"/><path d="M198.39,51.53a15.19,15.19,0,0,1-6,6,18.44,18.44,0,0,1-9.12,2.18H169.41V26.49h13.83a18.94,18.94,0,0,1,9.12,2.11,14.82,14.82,0,0,1,6,5.86A17.1,17.1,0,0,1,200.5,43,17.27,17.27,0,0,1,198.39,51.53Zm-10.5-3A7.13,7.13,0,0,0,189.95,43a7.13,7.13,0,0,0-2.06-5.49,7.86,7.86,0,0,0-5.58-1.92h-2.48V50.4h2.48A7.86,7.86,0,0,0,187.88,48.48Z"/><path d="M214.66,34.74v4.13H225V46.7H214.66v4.69h11.72v8.3H204.25V26.49h22.13v8.25Z"/><path d="M247,59.68l-6.28-11.91V59.68H230.32V26.49h15.47a15.28,15.28,0,0,1,6.89,1.43A9.94,9.94,0,0,1,257,31.81a10.86,10.86,0,0,1,1.43,5.56,9.87,9.87,0,0,1-1.85,5.91,10.18,10.18,0,0,1-5.32,3.7l7.22,12.71Zm-6.28-18.85h4.13a3.26,3.26,0,0,0,2.25-.68,2.75,2.75,0,0,0,.75-2.13,2.74,2.74,0,0,0-.77-2.06,3.07,3.07,0,0,0-2.23-.75h-4.13Z"/><path class="cls-1" d="M293.58,59.68H283.17L272.15,43V59.68H261.74V26.49h10.41l11,17v-17h10.41Z"/><path d="M308.67,26.49v33.2H298.26V26.49Z"/><path d="M323.77,34.74v4.13h10.32V46.7H323.77v4.69h11.72v8.3H313.36V26.49h22.13v8.25Z"/><path d="M356.13,59.68l-6.28-11.91V59.68H339.43V26.49h15.47a15.28,15.28,0,0,1,6.89,1.43,9.94,9.94,0,0,1,4.29,3.89,10.86,10.86,0,0,1,1.43,5.56,9.87,9.87,0,0,1-1.85,5.91,10.18,10.18,0,0,1-5.32,3.7l7.22,12.71Zm-6.28-18.85H354a3.26,3.26,0,0,0,2.25-.68A2.75,2.75,0,0,0,357,38,2.74,2.74,0,0,0,356.2,36a3.07,3.07,0,0,0-2.23-.75h-4.13Z"/><path class="cls-1" d="M395.54,55a10.08,10.08,0,0,1-4.29,3.63A15.5,15.5,0,0,1,384.54,60a16.37,16.37,0,0,1-9.82-2.79,10.27,10.27,0,0,1-4.2-8.18h11.07q.23,2.86,2.53,2.86a1.91,1.91,0,0,0,1.29-.42,1.52,1.52,0,0,0,.49-1.22,2.07,2.07,0,0,0-1.2-1.85,23.62,23.62,0,0,0-3.87-1.57,35.9,35.9,0,0,1-5.23-2.11A10.46,10.46,0,0,1,372,41.54a9.05,9.05,0,0,1-1.55-5.49,9.07,9.07,0,0,1,1.66-5.51,10.29,10.29,0,0,1,4.55-3.45,17.12,17.12,0,0,1,6.49-1.17q6,0,9.47,2.77a10.44,10.44,0,0,1,3.85,8H385.24Q385,34,383.09,34a1.51,1.51,0,0,0-1.08.4,1.57,1.57,0,0,0-.42,1.2,2,2,0,0,0,1.2,1.76A24.5,24.5,0,0,0,386.51,39a40.11,40.11,0,0,1,5.28,2.23,10.85,10.85,0,0,1,3.66,3.24A9,9,0,0,1,397,49.88,9.33,9.33,0,0,1,395.54,55Z"/><path class="cls-1" d="M106.26,103.4,100,91.49V103.4H89.57V70.21H105a15.28,15.28,0,0,1,6.89,1.43,9.94,9.94,0,0,1,4.29,3.89,10.86,10.86,0,0,1,1.43,5.56A9.87,9.87,0,0,1,115.8,87a10.18,10.18,0,0,1-5.32,3.7l7.22,12.71ZM100,84.55h4.13a3.26,3.26,0,0,0,2.25-.68,3.27,3.27,0,0,0,0-4.2,3.07,3.07,0,0,0-2.23-.75H100Z"/><path d="M131.39,78.46v4.13h10.32v7.83H131.39V95.1h11.72v8.3H121V70.21h22.13v8.25Z"/><path d="M157.47,92.85V103.4H147.06V70.21h14.54q6.09,0,9.35,3.09a10.91,10.91,0,0,1,3.26,8.3,11.32,11.32,0,0,1-1.45,5.7,10.36,10.36,0,0,1-4.29,4.06,14.52,14.52,0,0,1-6.87,1.5Zm6.19-11.25q0-3-3.24-3h-3v6.1h3Q163.65,84.65,163.65,81.6Z"/><path d="M202.25,71.82a16.21,16.21,0,0,1,6.17,6.07,18,18,0,0,1,0,17.54,16.33,16.33,0,0,1-6.19,6.1,17.81,17.81,0,0,1-17.16,0,16.48,16.48,0,0,1-6.21-6.1,17.88,17.88,0,0,1,0-17.54,16.32,16.32,0,0,1,6.21-6.07,18,18,0,0,1,17.19,0Zm-13.41,9.42a8.11,8.11,0,0,0-1.69,5.42A8,8,0,0,0,188.83,92a6.79,6.79,0,0,0,9.61,0,8,8,0,0,0,1.69-5.37,8.11,8.11,0,0,0-1.69-5.42,6.79,6.79,0,0,0-9.61,0Z"/><path d="M231.13,103.4l-6.28-11.91V103.4H214.44V70.21h15.47a15.28,15.28,0,0,1,6.89,1.43,9.94,9.94,0,0,1,4.29,3.89,10.86,10.86,0,0,1,1.43,5.56A9.87,9.87,0,0,1,240.67,87a10.18,10.18,0,0,1-5.32,3.7l7.22,12.71Zm-6.28-18.85H229a3.26,3.26,0,0,0,2.25-.68,3.27,3.27,0,0,0,0-4.2,3.07,3.07,0,0,0-2.23-.75h-4.13Z"/><path class="cls-1" d="M271.92,70.21v8.25h-8.82V103.4H252.7V78.46H244V70.21Z"/><path class="cls-1" d="M296,98.39H285l-1.64,5H272.39l12.14-33.2h12l12.1,33.2h-11Zm-2.53-7.83-3-9.24-3,9.24Z"/><path d="M337.45,73a12.47,12.47,0,0,1,4.85,8.53h-11A4,4,0,0,0,329.6,80a6.26,6.26,0,0,0-2.72-.54,5.74,5.74,0,0,0-4.64,1.95,8,8,0,0,0-1.64,5.32q0,3.89,1.83,5.81t5.63,1.92a7,7,0,0,0,5.81-2.91h-8.3V84.23h16.93V94.64a20,20,0,0,1-6,6.35,16.42,16.42,0,0,1-9.61,2.65,18.12,18.12,0,0,1-9-2.13,14.49,14.49,0,0,1-5.86-6,19.87,19.87,0,0,1,0-17.54,14.54,14.54,0,0,1,5.84-6,17.89,17.89,0,0,1,8.91-2.13Q333.35,69.88,337.45,73Z"/><path class="cls-1" d="M356.65,78.46v4.13H367v7.83H356.65V95.1h11.72v8.3H346.24V70.21h22.13v8.25Z"/><path class="cls-1" d="M396.49,98.76a10.08,10.08,0,0,1-4.29,3.63,15.5,15.5,0,0,1-6.71,1.34,16.37,16.37,0,0,1-9.82-2.79,10.27,10.27,0,0,1-4.2-8.18h11.07q.23,2.86,2.53,2.86a1.91,1.91,0,0,0,1.29-.42,1.52,1.52,0,0,0,.49-1.22,2.07,2.07,0,0,0-1.2-1.85,23.61,23.61,0,0,0-3.87-1.57,35.91,35.91,0,0,1-5.23-2.11,10.46,10.46,0,0,1-3.63-3.19,10.22,10.22,0,0,1,.12-11,10.29,10.29,0,0,1,4.55-3.45,17.12,17.12,0,0,1,6.49-1.17q6,0,9.47,2.77a10.44,10.44,0,0,1,3.85,8H386.2Q386,77.76,384,77.76a1.51,1.51,0,0,0-1.08.4,1.57,1.57,0,0,0-.42,1.2,2,2,0,0,0,1.2,1.76,24.51,24.51,0,0,0,3.73,1.57,40.11,40.11,0,0,1,5.28,2.23,10.85,10.85,0,0,1,3.66,3.24A9,9,0,0,1,398,93.6,9.33,9.33,0,0,1,396.49,98.76Z"/><path class="cls-1" d="M200.84,133.84a6.28,6.28,0,0,1-2.68,2.27,9.67,9.67,0,0,1-4.18.83,10.21,10.21,0,0,1-6.13-1.74,6.41,6.41,0,0,1-2.62-5.1h6.9q.15,1.78,1.58,1.78a1.19,1.19,0,0,0,.8-.26,1,1,0,0,0,.31-.76,1.29,1.29,0,0,0-.75-1.16,14.74,14.74,0,0,0-2.41-1,22.38,22.38,0,0,1-3.26-1.32,6.52,6.52,0,0,1-2.27-2,6.37,6.37,0,0,1,.07-6.86,6.42,6.42,0,0,1,2.84-2.15,10.68,10.68,0,0,1,4.05-.73,9.3,9.3,0,0,1,5.91,1.73,6.51,6.51,0,0,1,2.4,5h-7q-.15-1.64-1.35-1.64a.94.94,0,0,0-.67.25,1,1,0,0,0-.26.75,1.25,1.25,0,0,0,.75,1.1,15.28,15.28,0,0,0,2.32,1,25,25,0,0,1,3.29,1.39,6.76,6.76,0,0,1,2.28,2,5.6,5.6,0,0,1,1,3.41A5.82,5.82,0,0,1,200.84,133.84Z"/><path class="cls-1" d="M210.39,116V127.7A3.68,3.68,0,0,0,211,130a2.38,2.38,0,0,0,2,.83,2.51,2.51,0,0,0,2.08-.83,3.51,3.51,0,0,0,.67-2.27V116h6.46V127.7a9.79,9.79,0,0,1-1.23,5,7.87,7.87,0,0,1-3.36,3.14,10.63,10.63,0,0,1-4.77,1.05,10,10,0,0,1-4.66-1.05,7.49,7.49,0,0,1-3.17-3.13,10.38,10.38,0,0,1-1.14-5.06V116Z"/><path d="M235.48,136.74l-3.92-7.43v7.43h-6.49V116h9.65a9.53,9.53,0,0,1,4.3.89,6.2,6.2,0,0,1,2.68,2.43,6.77,6.77,0,0,1,.89,3.47,6.15,6.15,0,0,1-1.16,3.68,6.35,6.35,0,0,1-3.32,2.31l4.5,7.92ZM231.56,125h2.57a2,2,0,0,0,1.4-.42,2,2,0,0,0,0-2.62,1.92,1.92,0,0,0-1.39-.47h-2.57Z"/><path class="cls-1" d="M256.13,131.83h6.26v4.91H249.64V116h6.49Z"/><path class="cls-1" d="M277.71,133.61h-6.9l-1,3.13H263l7.57-20.7H278l7.54,20.7h-6.84Zm-1.58-4.88L274.26,123l-1.87,5.76Z"/><path d="M229.94,181.93a23.65,23.65,0,0,1-9.38,9.31,28.72,28.72,0,0,1-14.2,3.4H184.82v-51.7h21.54a29.49,29.49,0,0,1,14.2,3.29,23.07,23.07,0,0,1,9.38,9.13,28.51,28.51,0,0,1,0,26.58Zm-16.36-4.75q3.21-3,3.21-8.54t-3.21-8.54q-3.21-3-8.69-3H201v23.07h3.87Q210.37,180.17,213.59,177.18Z"/><path class="cls-1" d="M254.91,142.93v29.13a9.18,9.18,0,0,0,1.57,5.66q1.57,2.08,5.07,2.08a6.27,6.27,0,0,0,5.19-2.08,8.77,8.77,0,0,0,1.68-5.66V142.93h16.14v29.13a24.45,24.45,0,0,1-3.07,12.6,19.64,19.64,0,0,1-8.4,7.85,26.55,26.55,0,0,1-11.9,2.63,25,25,0,0,1-11.65-2.63,18.71,18.71,0,0,1-7.92-7.81,25.91,25.91,0,0,1-2.85-12.63V142.93Z"/><path d="M334.14,162H320.92l-14-21.21V162H293.69V119.85h13.23l14,21.57V119.85h13.23Z"/><path d="M371.56,121.9a20.58,20.58,0,0,1,7.83,7.71,22.92,22.92,0,0,1,0,22.28,20.74,20.74,0,0,1-7.86,7.74,22.62,22.62,0,0,1-21.8,0,20.94,20.94,0,0,1-7.89-7.74,22.72,22.72,0,0,1,0-22.28,20.73,20.73,0,0,1,7.89-7.71,22.89,22.89,0,0,1,21.83,0Zm-17,12a12,12,0,0,0,0,13.7,8.63,8.63,0,0,0,12.21,0,12,12,0,0,0,0-13.7,8.63,8.63,0,0,0-12.21,0Z"/><path d="M408.25,162l-8-15.13V162H387V119.85H406.7a19.41,19.41,0,0,1,8.76,1.82,12.63,12.63,0,0,1,5.45,4.94,13.79,13.79,0,0,1,1.82,7.06,12.54,12.54,0,0,1-2.35,7.51,12.93,12.93,0,0,1-6.76,4.71L422.79,162Zm-8-23.95h5.24a4.14,4.14,0,0,0,2.86-.86,4.15,4.15,0,0,0,0-5.33,3.91,3.91,0,0,0-2.83-1h-5.24Z"/><path d="M463.77,151.66a19.3,19.3,0,0,1-7.65,7.6A23.43,23.43,0,0,1,444.53,162H427V119.85h17.57a24.06,24.06,0,0,1,11.59,2.68,18.82,18.82,0,0,1,7.65,7.45,23.26,23.26,0,0,1,0,21.68Zm-13.34-3.87a10.58,10.58,0,0,0,0-13.94,10,10,0,0,0-7.09-2.44h-3.16v18.82h3.16A10,10,0,0,0,450.43,147.79Z"/><path d="M29.09,125.64a16.29,16.29,0,0,1,6.32,5.22,18.93,18.93,0,0,1,3.24,7.87H26.11a6.78,6.78,0,0,0-2.44-2.92,6.4,6.4,0,0,0-3.61-1A5.67,5.67,0,0,0,15.33,137a11.39,11.39,0,0,0,0,12.1,5.67,5.67,0,0,0,4.74,2.25,6.4,6.4,0,0,0,3.61-1,6.78,6.78,0,0,0,2.44-2.92H38.64a18.93,18.93,0,0,1-3.24,7.87,16.28,16.28,0,0,1-6.32,5.22,20.25,20.25,0,0,1-8.8,1.85,19.6,19.6,0,0,1-10-2.44,16.42,16.42,0,0,1-6.5-6.82,23.15,23.15,0,0,1,0-20,16.43,16.43,0,0,1,6.5-6.82,19.61,19.61,0,0,1,10-2.44A20.25,20.25,0,0,1,29.09,125.64Z"/><path class="cls-1" d="M71.18,126a18.49,18.49,0,0,1,7,6.93,20.59,20.59,0,0,1,0,20,18.64,18.64,0,0,1-7.06,7,20.33,20.33,0,0,1-19.59,0,18.82,18.82,0,0,1-7.09-7,20.41,20.41,0,0,1,0-20A18.62,18.62,0,0,1,51.56,126a20.57,20.57,0,0,1,19.62,0ZM55.87,136.78a10.79,10.79,0,0,0,0,12.31,6.82,6.82,0,0,0,5.51,2.27,6.76,6.76,0,0,0,5.46-2.27,10.79,10.79,0,0,0,0-12.31,6.76,6.76,0,0,0-5.46-2.27A6.83,6.83,0,0,0,55.87,136.78Z"/><path d="M104.15,162.44,97,148.85v13.6H85.1v-37.9h17.66a17.44,17.44,0,0,1,7.87,1.63,11.35,11.35,0,0,1,4.9,4.44,12.39,12.39,0,0,1,1.63,6.34,11.26,11.26,0,0,1-2.11,6.74,11.62,11.62,0,0,1-6.07,4.23l8.24,14.5ZM97,140.92h4.71a3.72,3.72,0,0,0,2.57-.78,3.73,3.73,0,0,0,0-4.79,3.51,3.51,0,0,0-2.54-.86H97Z"/><path d="M162.6,134v4.71h11.78v8.94H162.6V153H176v9.47H150.72v-37.9H176V134Z"/><path d="M133.55,133.93v4.72h11.79v8.95H133.55V153h13.4v9.48H121.65V124.5h25.29v9.43Zm7.72-16.5-13.88,5v-7.93l13.88-5.89Z"/></svg>