<svg id="Calque_1" data-name="Calque 1" xmlns="http://www.w3.org/2000/svg" viewBox="0 0 500 500"><defs><style>.cls-1{font-size:20px;font-family:Poppins-Regular, Poppins;letter-spacing:0.26em;}.cls-2{letter-spacing:0.26em;}.cls-3{fill:none;stroke:#000;stroke-miterlimit:10;stroke-width:1.31px;}</style></defs><title>Plan de travail 1 copie 2</title><text class="cls-1" transform="translate(161.66 405.15)"><tspan xml:space="preserve"> INTERAGIS</tspan><tspan class="cls-2"><tspan x="-37.78" y="30">AVEC LES CIVILS</tspan></tspan></text><path class="cls-3" d="M23.58,228.84h5.14a8.81,8.81,0,1,1,5.9,0h5.12a7.6,7.6,0,0,1,7.58,7.58V261.6a2.81,2.81,0,0,1-2.63,2.84,2.76,2.76,0,0,1-2.9-2.76V242s0,.19,0,.2v45.68q0,.19,0,.37c-.2,5.44-8.39,5.21-8.39-.23V265A1.34,1.34,0,0,0,32,263.68h-.76A1.34,1.34,0,0,0,30,265v23c0,5.44-8.19,5.67-8.39.23q0-.19,0-.37V261.91a2.76,2.76,0,0,1-2.79,2.53A2.81,2.81,0,0,1,16,261.6V239.91a7.56,7.56,0,0,1,0-.85v-2.64A7.6,7.6,0,0,1,23.58,228.84Z"/><line class="cls-3" x1="21.56" y1="261.91" x2="21.56" y2="242"/><path class="cls-3" d="M200.11,200.34h3.55a6.08,6.08,0,1,1,4.07,0h3.53a5.25,5.25,0,0,1,5.23,5.23v17.37a1.94,1.94,0,0,1-1.81,2,1.91,1.91,0,0,1-2-1.9V209.4s0,.13,0,.14v31.52q0,.13,0,.26c-.14,3.75-5.79,3.6-5.79-.16V225.31a.92.92,0,0,0-.92-.92h-.52a.92.92,0,0,0-.92.92v15.85c0,3.76-5.65,3.91-5.79.16q0-.13,0-.26v-17.9a1.91,1.91,0,0,1-1.92,1.74,1.94,1.94,0,0,1-1.88-2V208a5.22,5.22,0,0,1,0-.59v-1.82A5.25,5.25,0,0,1,200.11,200.34Z"/><line class="cls-3" x1="198.71" y1="223.16" x2="198.71" y2="209.42"/><path class="cls-3" d="M165.83,203.61h4.65a8,8,0,1,1,5.34,0h4.64a6.88,6.88,0,0,1,6.86,6.86v22.79a2.55,2.55,0,0,1-2.38,2.57,2.5,2.5,0,0,1-2.62-2.5V215.49s0,.18,0,.18V257q0,.17,0,.34c-.18,4.92-7.59,4.72-7.59-.21V236.36a1.21,1.21,0,0,0-1.21-1.21h-.68a1.21,1.21,0,0,0-1.21,1.21v20.79c0,4.93-7.41,5.13-7.59.21q0-.17,0-.34V233.55a2.5,2.5,0,0,1-2.52,2.29,2.55,2.55,0,0,1-2.47-2.57V213.63a6.85,6.85,0,0,1,0-.77v-2.39A6.88,6.88,0,0,1,165.83,203.61Z"/><line class="cls-3" x1="164" y1="233.55" x2="164" y2="215.52"/><path class="cls-3" d="M126,212.36h5.35a9.17,9.17,0,1,1,6.15,0h5.33a7.91,7.91,0,0,1,7.89,7.89v26.21a2.93,2.93,0,0,1-2.74,3,2.88,2.88,0,0,1-3-2.87V226s0,.2,0,.2v47.55q0,.19,0,.39c-.21,5.66-8.73,5.43-8.73-.24V250a1.39,1.39,0,0,0-1.39-1.39H134a1.39,1.39,0,0,0-1.39,1.39v23.9c0,5.67-8.52,5.9-8.73.24q0-.19,0-.39v-27a2.87,2.87,0,0,1-2.9,2.63,2.93,2.93,0,0,1-2.84-3V223.89a7.87,7.87,0,0,1-.05-.88v-2.75A7.91,7.91,0,0,1,126,212.36Z"/><line class="cls-3" x1="123.9" y1="246.79" x2="123.9" y2="226.06"/><path class="cls-3" d="M74.33,226.88h6.15a10.53,10.53,0,1,1,7.06,0h6.12a9.09,9.09,0,0,1,9.07,9.07v30.11a3.37,3.37,0,0,1-3.14,3.39,3.3,3.3,0,0,1-3.46-3.3V242.58s0,.23,0,.23v54.64q0,.22,0,.44c-.24,6.51-10,6.24-10-.28V270.16a1.6,1.6,0,0,0-1.6-1.6h-.9a1.6,1.6,0,0,0-1.6,1.6v27.47c0,6.51-9.79,6.78-10,.28q0-.22,0-.44v-31a3.3,3.3,0,0,1-3.33,3,3.37,3.37,0,0,1-3.26-3.4V240.12a9,9,0,0,1-.06-1v-3.16A9.09,9.09,0,0,1,74.33,226.88Z"/><line class="cls-3" x1="71.91" y1="266.44" x2="71.91" y2="242.62"/><path class="cls-3" d="M145,236.08h0v-9.83s0-.2,0-.2Z"/><path class="cls-3" d="M149.27,215.72v0a7.89,7.89,0,0,0-6.43-3.34H137.5a9.16,9.16,0,0,0,2.37-16H141a5.6,5.6,0,1,1,3.75,0H148a4.83,4.83,0,0,1,4.82,4.82v16a1.79,1.79,0,0,1-1.67,1.8,1.73,1.73,0,0,1-.51-.06A7.84,7.84,0,0,0,149.27,215.72Z"/><path class="cls-3" d="M126,212.36h5.35a9.17,9.17,0,1,1,6.15,0h5.33a7.91,7.91,0,0,1,7.89,7.89v26.21a2.93,2.93,0,0,1-2.74,3,2.88,2.88,0,0,1-3-2.87V226s0,.2,0,.2v47.55q0,.19,0,.39c-.21,5.66-8.73,5.43-8.73-.24V250a1.39,1.39,0,0,0-1.39-1.39H134a1.39,1.39,0,0,0-1.39,1.39v23.9c0,5.67-8.52,5.9-8.73.24q0-.19,0-.39v-27a2.87,2.87,0,0,1-2.9,2.63,2.93,2.93,0,0,1-2.84-3V223.89a7.87,7.87,0,0,1-.05-.88v-2.75A7.91,7.91,0,0,1,126,212.36Z"/><line class="cls-3" x1="123.9" y1="246.79" x2="123.9" y2="226.06"/><path class="cls-3" d="M71.91,266.44v3.7a3.69,3.69,0,0,1-.53-2v-.23A3.27,3.27,0,0,0,71.91,266.44Z"/><path class="cls-3" d="M62.85,216.7h4.47a7.66,7.66,0,1,1,10.19-8,10.5,10.5,0,0,0-4,7.55,7.68,7.68,0,0,1-1.05.47h1c0,.09,0,.17,0,.26a10.53,10.53,0,0,0,7,9.92H74.33a9.09,9.09,0,0,0-9.07,9.07v3.16a9,9,0,0,0,.06,1v25.93a3.37,3.37,0,0,0,2.87,3.35c-1.13,3.48-6.94,3.24-7.09-1,0-.11,0-.21,0-.32V245.48a2.4,2.4,0,0,1-2.43,2.2,2.45,2.45,0,0,1-2.37-2.47V226.34a6.55,6.55,0,0,1,0-.74v-2.3A6.62,6.62,0,0,1,62.85,216.7Z"/><line class="cls-3" x1="61.16" y1="245.79" x2="61.16" y2="230.52"/><path class="cls-3" d="M102.73,238.67v-3.16a9,9,0,0,0-1.89-5.5v-.79a2.09,2.09,0,0,1-.15.59,9.13,9.13,0,0,0-4-2.84v-14.4a5.61,5.61,0,0,1,0-.64v-2a5.75,5.75,0,0,1,5.74-5.74h3.89a6.67,6.67,0,1,1,4.47,0h3.88a5.75,5.75,0,0,1,5.74,5.74v4.42a7.86,7.86,0,0,0-2.23,5.47v2.75a7.77,7.77,0,0,0,.05.89v7.67a2.08,2.08,0,0,1-2-2.08V214.12s0,.15,0,.15v34.58c0,.09,0,.19,0,.28-.15,4.12-6.35,3.95-6.35-.17V231.57a1,1,0,0,0-1-1h-.57a1,1,0,0,0-1,1V249a3.18,3.18,0,0,1-4.47,2.93Z"/><line class="cls-3" x1="101.06" y1="230.25" x2="101.06" y2="214.15"/><line class="cls-3" x1="100.24" y1="314.51" x2="233.78" y2="249.54"/><path class="cls-3" d="M476.42,228.84h-5.14a8.81,8.81,0,1,0-5.9,0h-5.12a7.6,7.6,0,0,0-7.58,7.58V261.6a2.81,2.81,0,0,0,2.63,2.84,2.76,2.76,0,0,0,2.9-2.76V242s0,.19,0,.2v45.68q0,.19,0,.37c.2,5.44,8.39,5.21,8.39-.23V265a1.34,1.34,0,0,1,1.34-1.34h.76A1.34,1.34,0,0,1,470,265v23c0,5.44,8.19,5.67,8.39.23q0-.19,0-.37V261.91a2.76,2.76,0,0,0,2.79,2.53A2.81,2.81,0,0,0,484,261.6V239.91a7.56,7.56,0,0,0,0-.85v-2.64A7.6,7.6,0,0,0,476.42,228.84Z"/><line class="cls-3" x1="478.44" y1="261.91" x2="478.44" y2="242"/><path class="cls-3" d="M299.89,200.34h-3.55a6.08,6.08,0,1,0-4.07,0h-3.53a5.25,5.25,0,0,0-5.23,5.23v17.37a1.94,1.94,0,0,0,1.81,2,1.91,1.91,0,0,0,2-1.9V209.4s0,.13,0,.14v31.52q0,.13,0,.26c.14,3.75,5.79,3.6,5.79-.16V225.31a.92.92,0,0,1,.92-.92h.52a.92.92,0,0,1,.92.92v15.85c0,3.76,5.65,3.91,5.79.16q0-.13,0-.26v-17.9a1.91,1.91,0,0,0,1.92,1.74,1.94,1.94,0,0,0,1.88-2V208a5.22,5.22,0,0,0,0-.59v-1.82A5.25,5.25,0,0,0,299.89,200.34Z"/><line class="cls-3" x1="301.29" y1="223.16" x2="301.29" y2="209.42"/><path class="cls-3" d="M334.17,203.61h-4.65a8,8,0,1,0-5.34,0h-4.64a6.88,6.88,0,0,0-6.86,6.86v22.79a2.55,2.55,0,0,0,2.38,2.57,2.5,2.5,0,0,0,2.62-2.5V215.49s0,.18,0,.18V257q0,.17,0,.34c.18,4.92,7.59,4.72,7.59-.21V236.36a1.21,1.21,0,0,1,1.21-1.21h.68a1.21,1.21,0,0,1,1.21,1.21v20.79c0,4.93,7.41,5.13,7.59.21q0-.17,0-.34V233.55a2.5,2.5,0,0,0,2.52,2.29,2.55,2.55,0,0,0,2.47-2.57V213.63a6.85,6.85,0,0,0,0-.77v-2.39A6.88,6.88,0,0,0,334.17,203.61Z"/><line class="cls-3" x1="336" y1="233.55" x2="336" y2="215.52"/><path class="cls-3" d="M374,212.36h-5.35a9.17,9.17,0,1,0-6.15,0h-5.33a7.91,7.91,0,0,0-7.89,7.89v26.21a2.93,2.93,0,0,0,2.74,3,2.88,2.88,0,0,0,3-2.87V226s0,.2,0,.2v47.55q0,.19,0,.39c.21,5.66,8.73,5.43,8.73-.24V250a1.39,1.39,0,0,1,1.39-1.39H366a1.39,1.39,0,0,1,1.39,1.39v23.9c0,5.67,8.52,5.9,8.73.24q0-.19,0-.39v-27a2.87,2.87,0,0,0,2.9,2.63,2.93,2.93,0,0,0,2.84-3V223.89a7.87,7.87,0,0,0,.05-.88v-2.75A7.91,7.91,0,0,0,374,212.36Z"/><line class="cls-3" x1="376.1" y1="246.79" x2="376.1" y2="226.06"/><path class="cls-3" d="M425.67,226.88h-6.15a10.53,10.53,0,1,0-7.06,0h-6.12a9.09,9.09,0,0,0-9.07,9.07v30.11a3.37,3.37,0,0,0,3.14,3.39,3.3,3.3,0,0,0,3.46-3.3V242.58s0,.23,0,.23v54.64q0,.22,0,.44c.24,6.51,10,6.24,10-.28V270.16a1.6,1.6,0,0,1,1.6-1.6h.9a1.6,1.6,0,0,1,1.6,1.6v27.47c0,6.51,9.79,6.78,10,.28q0-.22,0-.44v-31a3.3,3.3,0,0,0,3.33,3,3.37,3.37,0,0,0,3.26-3.4V240.12a9,9,0,0,0,.06-1v-3.16A9.09,9.09,0,0,0,425.67,226.88Z"/><line class="cls-3" x1="428.09" y1="266.44" x2="428.09" y2="242.62"/><path class="cls-3" d="M355,236.08h0v-9.83s0-.2,0-.2Z"/><path class="cls-3" d="M350.73,215.72v0a7.89,7.89,0,0,1,6.43-3.34h5.33a9.16,9.16,0,0,1-2.37-16H359a5.6,5.6,0,1,0-3.75,0H352a4.83,4.83,0,0,0-4.82,4.82v16a1.79,1.79,0,0,0,1.67,1.8,1.73,1.73,0,0,0,.51-.06A7.84,7.84,0,0,1,350.73,215.72Z"/><path class="cls-3" d="M374,212.36h-5.35a9.17,9.17,0,1,0-6.15,0h-5.33a7.91,7.91,0,0,0-7.89,7.89v26.21a2.93,2.93,0,0,0,2.74,3,2.88,2.88,0,0,0,3-2.87V226s0,.2,0,.2v47.55q0,.19,0,.39c.21,5.66,8.73,5.43,8.73-.24V250a1.39,1.39,0,0,1,1.39-1.39H366a1.39,1.39,0,0,1,1.39,1.39v23.9c0,5.67,8.52,5.9,8.73.24q0-.19,0-.39v-27a2.87,2.87,0,0,0,2.9,2.63,2.93,2.93,0,0,0,2.84-3V223.89a7.87,7.87,0,0,0,.05-.88v-2.75A7.91,7.91,0,0,0,374,212.36Z"/><line class="cls-3" x1="376.1" y1="246.79" x2="376.1" y2="226.06"/><path class="cls-3" d="M428.09,266.44v3.7a3.69,3.69,0,0,0,.53-2v-.23A3.27,3.27,0,0,1,428.09,266.44Z"/><path class="cls-3" d="M437.15,216.7h-4.47a7.66,7.66,0,1,0-10.19-8,10.5,10.5,0,0,1,4,7.55,7.68,7.68,0,0,0,1.05.47h-1c0,.09,0,.17,0,.26a10.53,10.53,0,0,1-7,9.92h6.15a9.09,9.09,0,0,1,9.07,9.07v3.16a9,9,0,0,1-.06,1v25.93a3.37,3.37,0,0,1-2.87,3.35c1.13,3.48,6.94,3.24,7.09-1,0-.11,0-.21,0-.32V245.48a2.4,2.4,0,0,0,2.43,2.2,2.45,2.45,0,0,0,2.37-2.47V226.34a6.55,6.55,0,0,0,0-.74v-2.3A6.62,6.62,0,0,0,437.15,216.7Z"/><line class="cls-3" x1="438.84" y1="245.79" x2="438.84" y2="230.52"/><path class="cls-3" d="M397.27,238.67v-3.16a9,9,0,0,1,1.89-5.5v-.79a2.09,2.09,0,0,0,.15.59,9.13,9.13,0,0,1,4-2.84v-14.4a5.61,5.61,0,0,0,0-.64v-2a5.75,5.75,0,0,0-5.74-5.74h-3.89a6.67,6.67,0,1,0-4.47,0H385.4a5.75,5.75,0,0,0-5.74,5.74v4.42a7.86,7.86,0,0,1,2.23,5.47v2.75a7.77,7.77,0,0,1-.05.89v7.67a2.08,2.08,0,0,0,2-2.08V214.12s0,.15,0,.15v34.58c0,.09,0,.19,0,.28.15,4.12,6.35,3.95,6.35-.17V231.57a1,1,0,0,1,1-1h.57a1,1,0,0,1,1,1V249a3.18,3.18,0,0,0,4.47,2.93Z"/><line class="cls-3" x1="398.94" y1="230.25" x2="398.94" y2="214.15"/><line class="cls-3" x1="264.61" y1="249.54" x2="398.16" y2="314.51"/></svg>