<svg id="Calque_1" data-name="Calque 1" xmlns="http://www.w3.org/2000/svg" viewBox="0 0 235 64"><defs><style>.cls-1,.cls-2{fill:none;stroke:#000;}.cls-1{stroke-miterlimit:10;}</style></defs><title>divisés</title><path class="cls-1" d="M38,51.52a19.49,19.49,0,0,1-7.73,7.67A23.66,23.66,0,0,1,18.6,62H.85V19.4H18.6A24.29,24.29,0,0,1,30.3,22.1,19,19,0,0,1,38,29.62a22,22,0,0,1,2.71,10.95A22.16,22.16,0,0,1,38,51.52ZM24.55,47.61q2.65-2.47,2.65-7a9.15,9.15,0,0,0-2.65-7,10.09,10.09,0,0,0-7.16-2.47H14.21v19h3.19A10.08,10.08,0,0,0,24.55,47.61Z"/><path d="M58.9,19.4V62H45.55V19.4Z"/><path class="cls-1" d="M76.11,19.4l8.78,29.3,8.72-29.3h14.2L93.5,62H76.23L61.91,19.4Z"/><path class="cls-2" d="M124.18,19.4V62H110.82V19.4Z"/><path d="M161.21,56a12.93,12.93,0,0,1-5.5,4.66,19.89,19.89,0,0,1-8.6,1.71q-7.64,0-12.6-3.58t-5.38-10.5h14.2q.3,3.67,3.25,3.67a2.45,2.45,0,0,0,1.65-.54,2,2,0,0,0,.63-1.56,2.65,2.65,0,0,0-1.53-2.38,30.26,30.26,0,0,0-5-2,46.07,46.07,0,0,1-6.71-2.71A13.42,13.42,0,0,1,131,38.71a11.61,11.61,0,0,1-2-7,11.64,11.64,0,0,1,2.14-7.07A13.19,13.19,0,0,1,137,20.18a22,22,0,0,1,8.33-1.5q7.64,0,12.15,3.55t4.93,10.23H148q-.3-3.37-2.77-3.37a1.94,1.94,0,0,0-1.38.51,2,2,0,0,0-.54,1.53,2.57,2.57,0,0,0,1.53,2.26,31.45,31.45,0,0,0,4.78,2,51.44,51.44,0,0,1,6.77,2.86,13.91,13.91,0,0,1,4.69,4.15,11.52,11.52,0,0,1,2,7A12,12,0,0,1,161.21,56Z"/><path class="cls-1" d="M181.15,30v5.29h13.24v10H181.15v6h15V62h-28.4V19.4h28.4V30Zm8.66-18.53-15.58,5.66V8.21l15.58-6.62Z"/><path d="M232.26,56a12.94,12.94,0,0,1-5.5,4.66,19.89,19.89,0,0,1-8.6,1.71q-7.64,0-12.6-3.58t-5.38-10.5h14.2q.3,3.67,3.25,3.67a2.45,2.45,0,0,0,1.65-.54,2,2,0,0,0,.63-1.56,2.65,2.65,0,0,0-1.53-2.38,30.25,30.25,0,0,0-5-2,46,46,0,0,1-6.71-2.71A13.42,13.42,0,0,1,202,38.71a11.61,11.61,0,0,1-2-7,11.64,11.64,0,0,1,2.14-7.07A13.19,13.19,0,0,1,208,20.18a22,22,0,0,1,8.33-1.5q7.64,0,12.15,3.55t4.93,10.23H219.05q-.3-3.37-2.77-3.37a1.94,1.94,0,0,0-1.38.51,2,2,0,0,0-.54,1.53,2.57,2.57,0,0,0,1.53,2.26,31.45,31.45,0,0,0,4.78,2,51.44,51.44,0,0,1,6.77,2.86,13.91,13.91,0,0,1,4.69,4.15,11.52,11.52,0,0,1,2,7A12,12,0,0,1,232.26,56Z"/></svg>