<svg id="Calque_1" data-name="Calque 1" xmlns="http://www.w3.org/2000/svg" viewBox="0 0 300 100"><defs><style>.cls-1,.cls-2{fill:none;stroke:#000;}.cls-2{stroke-miterlimit:10;}</style></defs><title>l&amp;apos;envers_du_décor</title><path class="cls-1" d="M65.74,33.63h8.94v7H56.47V11.07h9.27Z"/><path class="cls-1" d="M78.65,9.65A8,8,0,0,1,76.91,15,6.3,6.3,0,0,1,71.79,17v-3.3A2,2,0,0,0,73.49,13a3.72,3.72,0,0,0,.61-2.32v-.5h-3V4H77.6A15.26,15.26,0,0,1,78.65,9.65Z"/><path d="M92.93,18.42V22.1h9.19v7H92.93v4.18h10.44v7.39H83.66V11.07h19.72v7.35Z"/><path d="M136.09,40.65h-9.27L117,25.77V40.65h-9.27V11.07H117l9.82,15.12V11.07h9.27Z"/><path class="cls-1" d="M148.88,11.07,155,31.41,161,11.07h9.86l-9.94,29.58H149L139,11.07Z"/><path d="M183.09,18.42V22.1h9.19v7h-9.19v4.18h10.44v7.39H173.82V11.07h19.72v7.35Z"/><path class="cls-1" d="M212.75,40.65,207.16,30V40.65h-9.27V11.07h13.79a13.61,13.61,0,0,1,6.14,1.27,8.86,8.86,0,0,1,3.82,3.47,9.68,9.68,0,0,1,1.27,5A8.79,8.79,0,0,1,221.26,26a9.07,9.07,0,0,1-4.74,3.3l6.43,11.32Zm-5.6-16.79h3.68a2.9,2.9,0,0,0,2-.61,2.45,2.45,0,0,0,.67-1.9,2.44,2.44,0,0,0-.69-1.84,2.74,2.74,0,0,0-2-.67h-3.68Z"/><path d="M248.24,36.51a9,9,0,0,1-3.82,3.24,13.81,13.81,0,0,1-6,1.19,14.59,14.59,0,0,1-8.75-2.49A9.15,9.15,0,0,1,226,31.16h9.86q.21,2.55,2.26,2.55a1.7,1.7,0,0,0,1.15-.38,1.35,1.35,0,0,0,.44-1.09,1.84,1.84,0,0,0-1.07-1.65,21,21,0,0,0-3.45-1.4,32,32,0,0,1-4.66-1.88,9.32,9.32,0,0,1-3.24-2.84,8.06,8.06,0,0,1-1.38-4.89,8.08,8.08,0,0,1,1.48-4.91,9.16,9.16,0,0,1,4.05-3.07,15.25,15.25,0,0,1,5.79-1q5.31,0,8.44,2.46a9.3,9.3,0,0,1,3.43,7.1h-10q-.21-2.34-1.92-2.34a1.34,1.34,0,0,0-1,.36,1.4,1.4,0,0,0-.38,1.07,1.79,1.79,0,0,0,1.07,1.57,21.84,21.84,0,0,0,3.32,1.4,35.72,35.72,0,0,1,4.7,2A9.66,9.66,0,0,1,248.16,27a8,8,0,0,1,1.4,4.87A8.31,8.31,0,0,1,248.24,36.51Z"/><path class="cls-2" d="M46,84.33a24,24,0,0,1-9.51,9.44,29.12,29.12,0,0,1-14.4,3.44H.22V44.79H22.06a29.9,29.9,0,0,1,14.4,3.33A23.39,23.39,0,0,1,46,57.38a27,27,0,0,1,3.33,13.48A27.27,27.27,0,0,1,46,84.33ZM29.39,79.52q3.26-3,3.26-8.66t-3.26-8.66q-3.26-3-8.81-3H16.65v23.4h3.92Q26.13,82.55,29.39,79.52Z"/><path d="M72.78,44.79V74.33a9.31,9.31,0,0,0,1.59,5.74q1.59,2.11,5.15,2.11a6.35,6.35,0,0,0,5.26-2.11,8.88,8.88,0,0,0,1.7-5.74V44.79h16.36V74.33a24.79,24.79,0,0,1-3.11,12.77,19.91,19.91,0,0,1-8.51,8,26.92,26.92,0,0,1-12.07,2.67,25.31,25.31,0,0,1-11.81-2.67,19,19,0,0,1-8-7.92,26.28,26.28,0,0,1-2.89-12.81V44.79Z"/><path class="cls-1" d="M143.81,88.07a17.38,17.38,0,0,1-6.9,6.84,21.1,21.1,0,0,1-10.44,2.5H110.64v-38h15.83a21.67,21.67,0,0,1,10.44,2.41,17,17,0,0,1,6.9,6.71,21,21,0,0,1,0,19.53Zm-12-3.49a8.16,8.16,0,0,0,2.36-6.28A8.16,8.16,0,0,0,131.79,72a9,9,0,0,0-6.39-2.2h-2.84v17h2.84A9,9,0,0,0,131.79,84.58Z"/><path d="M163.5,68.85v4.72h11.81v9H163.5V87.9h13.42v9.5H151.59v-38h25.33v9.44Zm7.73-16.53-13.9,5V49.43l13.9-5.9Z"/><path d="M209,60.89a16.32,16.32,0,0,1,6.33,5.23A19,19,0,0,1,218.61,74H206.06a6.8,6.8,0,0,0-2.44-2.92A6.42,6.42,0,0,0,200,70a5.68,5.68,0,0,0-4.75,2.25,9.66,9.66,0,0,0-1.74,6.06,9.65,9.65,0,0,0,1.74,6.06A5.68,5.68,0,0,0,200,86.67a6.42,6.42,0,0,0,3.62-1,6.8,6.8,0,0,0,2.44-2.92h12.56a19,19,0,0,1-3.25,7.89A16.32,16.32,0,0,1,209,95.82a20.3,20.3,0,0,1-8.83,1.85,19.65,19.65,0,0,1-10-2.44,16.47,16.47,0,0,1-6.52-6.84,21.48,21.48,0,0,1-2.28-10,21.48,21.48,0,0,1,2.28-10,16.48,16.48,0,0,1,6.52-6.84,19.65,19.65,0,0,1,10-2.44A20.3,20.3,0,0,1,209,60.89Z"/><path class="cls-1" d="M252.32,61.26a18.55,18.55,0,0,1,7.06,6.95,20.65,20.65,0,0,1,0,20.07,18.68,18.68,0,0,1-7.08,7,20.38,20.38,0,0,1-19.64,0,18.86,18.86,0,0,1-7.11-7,20.46,20.46,0,0,1,0-20.07,18.67,18.67,0,0,1,7.11-6.95,20.62,20.62,0,0,1,19.67,0ZM237,72a9.28,9.28,0,0,0-1.93,6.2A9.2,9.2,0,0,0,237,84.39a7.77,7.77,0,0,0,11,0,9.19,9.19,0,0,0,1.93-6.14A9.28,9.28,0,0,0,248,72a7.77,7.77,0,0,0-11,0Z"/><path d="M286.45,97.4l-7.19-13.63V97.4H267.34v-38h17.71A17.49,17.49,0,0,1,292.94,61a11.38,11.38,0,0,1,4.91,4.45,12.43,12.43,0,0,1,1.64,6.36,11.3,11.3,0,0,1-2.12,6.76,11.65,11.65,0,0,1-6.09,4.24l8.26,14.54Zm-7.19-21.57H284a3.73,3.73,0,0,0,2.58-.78,3.74,3.74,0,0,0,0-4.8,3.52,3.52,0,0,0-2.55-.86h-4.72Z"/></svg>