<svg id="Calque_1" data-name="Calque 1" xmlns="http://www.w3.org/2000/svg" viewBox="0 0 999 423.67"><defs><style>.cls-1{fill:none;stroke:#000;stroke-width:2.89px;}</style></defs><title>doux_poisons_1</title><path d="M179.35,162.66a93.88,93.88,0,0,1-37.24,36.95q-24.2,13.48-56.36,13.48H.25V7.91H85.74q32.17,0,56.36,13a91.57,91.57,0,0,1,37.24,36.22q13,23.19,13,52.74Q192.39,139.19,179.35,162.66Zm-64.91-18.84q12.75-11.88,12.75-33.91T114.43,76Q101.68,64.13,79.95,64.13H64.59V155.7H79.95Q101.68,155.7,114.43,143.82Z"/><path class="cls-1" d="M380.17,17.91a100.14,100.14,0,0,1,38.11,37.53q14.05,24.06,14.06,54.19t-14.06,54.19A100.88,100.88,0,0,1,380,201.49a110.05,110.05,0,0,1-106.06,0,101.87,101.87,0,0,1-38.4-37.67q-14.2-24.05-14.2-54.19t14.2-54.19A100.84,100.84,0,0,1,274,17.91a111.38,111.38,0,0,1,106.21,0ZM297.29,76.15q-10.43,12.32-10.43,33.47,0,20.87,10.43,33.18t29.85,12.32q19.13,0,29.56-12.32t10.43-33.18q0-21.15-10.43-33.47T327.14,63.84Q307.72,63.84,297.29,76.15Z"/><path d="M491.68,89.86v69.89q0,8.58,3.77,13.58t12.17,5q8.41,0,12.44-5t4-13.58V89.86H562.8v69.89q0,17.69-7.36,30.22a47.11,47.11,0,0,1-20.14,18.83,63.68,63.68,0,0,1-28.55,6.31q-15.77,0-27.94-6.31a44.88,44.88,0,0,1-19-18.74Q453,177.63,453,159.76V89.86Z"/><path class="cls-1" d="M665.62,213.88l-22.77-32.23-18.92,32.23H579.61l40.81-63.94L577.86,89.86h46.07l21.9,31,18.22-31h44.32l-40.11,62.71,43.44,61.31Z"/><path d="M39.79,327.52V367.6H.25V241.5H55.47q23.15,0,35.53,11.76t12.38,31.53a43,43,0,0,1-5.52,21.64,39.35,39.35,0,0,1-16.3,15.41q-10.78,5.7-26.09,5.7ZM63.3,284.78Q63.3,273.2,51,273.2H39.79v23.15H51Q63.3,296.36,63.3,284.78Z"/><path class="cls-1" d="M217,247.64a61.55,61.55,0,0,1,23.42,23.06,68.53,68.53,0,0,1,0,66.61,62,62,0,0,1-23.51,23.15,67.64,67.64,0,0,1-65.19,0,62.61,62.61,0,0,1-23.6-23.15,67.91,67.91,0,0,1,0-66.61,62,62,0,0,1,23.6-23.06,68.45,68.45,0,0,1,65.28,0Zm-50.94,35.8Q159.66,291,159.66,304q0,12.82,6.41,20.39T184.41,332q11.76,0,18.17-7.57T209,304q0-13-6.41-20.57t-18.17-7.57Q172.48,275.87,166.07,283.44Z"/><path class="cls-1" d="M310,241.5V367.6H270.44V241.5Z"/><path d="M426.72,350a38.29,38.29,0,0,1-16.3,13.8q-10.69,5.08-25.47,5.08-22.62,0-37.31-10.6T331.7,327.17h42q.89,10.87,9.62,10.86a7.26,7.26,0,0,0,4.9-1.6,5.76,5.76,0,0,0,1.87-4.63q0-4.45-4.54-7a89.63,89.63,0,0,0-14.69-6,136.43,136.43,0,0,1-19.86-8,39.73,39.73,0,0,1-13.8-12.11q-5.88-8-5.88-20.84,0-12.29,6.32-20.93a39,39,0,0,1,17.28-13.09,65,65,0,0,1,24.67-4.45q22.62,0,36,10.51t14.6,30.28H387.63q-.89-10-8.19-10a5.73,5.73,0,0,0-4.1,1.51,6,6,0,0,0-1.6,4.54q0,4.1,4.54,6.68a93.15,93.15,0,0,0,14.16,6,152.25,152.25,0,0,1,20,8.46,41.18,41.18,0,0,1,13.89,12.29q6,8.11,6,20.75A35.45,35.45,0,0,1,426.72,350Z"/><path class="cls-1" d="M592.24,255.75a83.7,83.7,0,0,1,31.85,31.37q11.74,20.11,11.75,45.29T624.09,377.7a84.32,84.32,0,0,1-32,31.49,92,92,0,0,1-88.65,0,85.14,85.14,0,0,1-32.09-31.49q-11.87-20.1-11.87-45.29t11.87-45.29a84.28,84.28,0,0,1,32.09-31.37,93.08,93.08,0,0,1,88.77,0ZM523,304.43q-8.72,10.3-8.72,28,0,17.44,8.72,27.73t24.95,10.29q16,0,24.7-10.29t8.72-27.73q0-17.68-8.72-28t-24.7-10.29Q531.69,294.14,523,304.43Z"/><path d="M829.36,418.87H775.59l-56.92-86.22v86.22H664.9V247.39h53.77l56.92,87.68V247.39h53.77Z"/><path class="cls-1" d="M988.12,394.9q-7.63,11.87-22.16,18.77t-34.63,6.9q-30.76,0-50.74-14.41T858.9,363.89h57.16q1.21,14.78,13.08,14.77a9.88,9.88,0,0,0,6.66-2.18,7.83,7.83,0,0,0,2.54-6.3q0-6.05-6.18-9.57t-20-8.11a185.52,185.52,0,0,1-27-10.9,54,54,0,0,1-18.77-16.47q-8-10.9-8-28.34,0-16.71,8.6-28.46t23.49-17.8q14.9-6.05,33.54-6.06,30.76,0,48.92,14.29T992.84,300H935q-1.21-13.56-11.14-13.56a7.79,7.79,0,0,0-5.57,2.06q-2.18,2.06-2.18,6.18,0,5.57,6.18,9.08t19.26,8.11a207,207,0,0,1,27.25,11.5A56,56,0,0,1,987.63,340q8.11,11,8.11,28.22A48.21,48.21,0,0,1,988.12,394.9Z"/></svg>