<svg id="Calque_1" data-name="Calque 1" xmlns="http://www.w3.org/2000/svg" viewBox="0 0 500 500"><defs><style>.cls-1{font-size:20px;font-family:Poppins-Regular, Poppins;letter-spacing:0.26em;}.cls-2{fill:none;stroke:#000;stroke-miterlimit:10;stroke-width:1.56px;}</style></defs><title>Plan de travail 1 copie 3</title><text class="cls-1" transform="translate(116.51 388.15)">DÉCOUVRE CE QUI<tspan x="-10.41" y="30">SE CACHE DERRIÈRE</tspan><tspan x="23.16" y="60">LES MILITAIRES</tspan></text><path class="cls-2" d="M112.12,206.29h-7.73a13.25,13.25,0,1,0-8.88,0H87.8a11.44,11.44,0,0,0-11.4,11.4v37.88a4.23,4.23,0,0,0,4,4.27,4.16,4.16,0,0,0,4.36-4.15V226s0,.29,0,.3v68.73q0,.28,0,.56c.3,8.18,12.62,7.84,12.62-.35V260.72a2,2,0,0,1,2-2h1.14a2,2,0,0,1,2,2v34.55c0,8.19,12.32,8.53,12.62.35q0-.28,0-.56V256a4.15,4.15,0,0,0,4.19,3.8,4.23,4.23,0,0,0,4.1-4.28V222.94a11.38,11.38,0,0,0,.07-1.28v-4A11.44,11.44,0,0,0,112.12,206.29Z"/><line class="cls-2" x1="115.16" y1="256.04" x2="115.16" y2="226.09"/><path class="cls-2" d="M162,206.29H154.3a13.25,13.25,0,1,0-8.88,0h-7.7a11.44,11.44,0,0,0-11.4,11.4v37.88a4.23,4.23,0,0,0,4,4.27,4.16,4.16,0,0,0,4.36-4.15V226s0,.29,0,.3v68.73q0,.28,0,.56c.3,8.18,12.62,7.84,12.62-.35V260.72a2,2,0,0,1,2-2h1.14a2,2,0,0,1,2,2v34.55c0,8.19,12.32,8.53,12.62.35q0-.28,0-.56V256a4.15,4.15,0,0,0,4.19,3.8,4.23,4.23,0,0,0,4.1-4.28V222.94a11.38,11.38,0,0,0,.07-1.28v-4A11.44,11.44,0,0,0,162,206.29Z"/><line class="cls-2" x1="165.07" y1="256.04" x2="165.07" y2="226.09"/><path class="cls-2" d="M211.95,206.29h-7.73a13.25,13.25,0,1,0-8.88,0h-7.7a11.44,11.44,0,0,0-11.4,11.4v37.88a4.23,4.23,0,0,0,4,4.27,4.16,4.16,0,0,0,4.36-4.15V226s0,.29,0,.3v68.73q0,.28,0,.56c.3,8.18,12.62,7.84,12.62-.35V260.72a2,2,0,0,1,2-2h1.14a2,2,0,0,1,2,2v34.55c0,8.19,12.32,8.53,12.62.35q0-.28,0-.56V256a4.15,4.15,0,0,0,4.19,3.8,4.23,4.23,0,0,0,4.1-4.28V222.94a11.38,11.38,0,0,0,.07-1.28v-4A11.44,11.44,0,0,0,211.95,206.29Z"/><line class="cls-2" x1="214.98" y1="256.04" x2="214.98" y2="226.09"/><path class="cls-2" d="M261.86,206.29h-7.73a13.25,13.25,0,1,0-8.88,0h-7.7a11.44,11.44,0,0,0-11.4,11.4v37.88a4.23,4.23,0,0,0,4,4.27,4.16,4.16,0,0,0,4.36-4.15V226s0,.29,0,.3v68.73q0,.28,0,.56c.3,8.18,12.62,7.84,12.62-.35V260.72a2,2,0,0,1,2-2h1.14a2,2,0,0,1,2,2v34.55c0,8.19,12.32,8.53,12.62.35q0-.28,0-.56V256a4.15,4.15,0,0,0,4.19,3.8,4.23,4.23,0,0,0,4.1-4.28V222.94a11.38,11.38,0,0,0,.07-1.28v-4A11.44,11.44,0,0,0,261.86,206.29Z"/><line class="cls-2" x1="264.9" y1="256.04" x2="264.9" y2="226.09"/><path class="cls-2" d="M311.77,206.29H304a13.25,13.25,0,1,0-8.88,0h-7.7a11.44,11.44,0,0,0-11.4,11.4v37.88a4.23,4.23,0,0,0,4,4.27,4.16,4.16,0,0,0,4.36-4.15V226s0,.29,0,.3v68.73q0,.28,0,.56c.3,8.18,12.62,7.84,12.62-.35V260.72a2,2,0,0,1,2-2h1.14a2,2,0,0,1,2,2v34.55c0,8.19,12.32,8.53,12.62.35q0-.28,0-.56V256a4.15,4.15,0,0,0,4.19,3.8,4.23,4.23,0,0,0,4.1-4.28V222.94a11.38,11.38,0,0,0,.07-1.28v-4A11.44,11.44,0,0,0,311.77,206.29Z"/><line class="cls-2" x1="314.81" y1="256.04" x2="314.81" y2="226.09"/><path class="cls-2" d="M361.68,206.29H354a13.25,13.25,0,1,0-8.88,0h-7.7a11.44,11.44,0,0,0-11.4,11.4v37.88a4.23,4.23,0,0,0,4,4.27,4.16,4.16,0,0,0,4.36-4.15V226s0,.29,0,.3v68.73q0,.28,0,.56c.3,8.18,12.62,7.84,12.62-.35V260.72a2,2,0,0,1,2-2h1.14a2,2,0,0,1,2,2v34.55c0,8.19,12.32,8.53,12.62.35q0-.28,0-.56V256a4.15,4.15,0,0,0,4.19,3.8,4.23,4.23,0,0,0,4.1-4.28V222.94a11.38,11.38,0,0,0,.07-1.28v-4A11.44,11.44,0,0,0,361.68,206.29Z"/><line class="cls-2" x1="364.72" y1="256.04" x2="364.72" y2="226.09"/><path class="cls-2" d="M411.6,206.29h-7.73a13.25,13.25,0,1,0-8.88,0h-7.7a11.44,11.44,0,0,0-11.4,11.4v37.88a4.23,4.23,0,0,0,4,4.27,4.16,4.16,0,0,0,4.36-4.15V226s0,.29,0,.3v68.73q0,.28,0,.56c.3,8.18,12.62,7.84,12.62-.35V260.72a2,2,0,0,1,2-2H400a2,2,0,0,1,2,2v34.55c0,8.19,12.32,8.53,12.62.35q0-.28,0-.56V256a4.15,4.15,0,0,0,4.19,3.8,4.23,4.23,0,0,0,4.1-4.28V222.94a11.38,11.38,0,0,0,.07-1.28v-4A11.44,11.44,0,0,0,411.6,206.29Z"/><line class="cls-2" x1="414.63" y1="256.04" x2="414.63" y2="226.09"/><path class="cls-2" d="M200.34,258.71H199.2a2,2,0,0,0-1.34.54,6.09,6.09,0,0,0,2.66-.5C200.46,258.74,200.41,258.71,200.34,258.71Z"/><path class="cls-2" d="M195.33,206.29a13.13,13.13,0,0,1-2.71-1.38v1.38Z"/><path class="cls-2" d="M216.62,175.75h-6.78a11.61,11.61,0,1,0-7.78,0h-6.75a10,10,0,0,0-10,10v20.78a11.35,11.35,0,0,1,2.32-.24h5v-1.39a13.21,13.21,0,1,1,11.62,1.39h7.73a11.44,11.44,0,0,1,11.4,11.4v4c0,.33,0,.66-.06,1a3.71,3.71,0,0,0,3.25-3.71V190.35a9.9,9.9,0,0,0,.06-1.12v-3.48A10,10,0,0,0,216.62,175.75Z"/><path class="cls-2" d="M216.28,258.72A4.14,4.14,0,0,1,215,256v3.09A5.71,5.71,0,0,0,216.28,258.72Z"/><path class="cls-2" d="M236.33,206.35V193.06s0,.26,0,.26v13a11.42,11.42,0,0,1,1.18-.06h7.7a13.25,13.25,0,1,1,8.88,0h7.73a11.37,11.37,0,0,1,8.42,3.76V190.35a9.9,9.9,0,0,0,.07-1.12v-3.48a10,10,0,0,0-10-10h-6.78a11.61,11.61,0,1,0-7.78,0H239a10,10,0,0,0-10,10v24.37A11.39,11.39,0,0,1,236.33,206.35Z"/><path class="cls-2" d="M284.36,255.69a4.14,4.14,0,0,1-1.3,3,5.69,5.69,0,0,0,1.33.43v-32.8s0-.29,0-.3Z"/><path class="cls-2" d="M276,221.67v-4a11.39,11.39,0,0,1,4-8.67v-16s0,.26,0,.26V209a11.34,11.34,0,0,1,7.36-2.71h7.7a13.25,13.25,0,1,1,8.88,0h7.73a11.35,11.35,0,0,1,2.25.23V190.35a9.9,9.9,0,0,0,.07-1.12v-3.48a10,10,0,0,0-10-10h-6.78a11.61,11.61,0,1,0-7.78,0h-6.75a10,10,0,0,0-10,10v33.19a3.71,3.71,0,0,0,3.26,3.71Z"/><path class="cls-2" d="M399.42,180.56c.23,0,.45,0,.68,0a10,10,0,0,0-8.54-4.83h-6.78a11.61,11.61,0,1,0-7.78,0h-6.75a10,10,0,0,0-10,10v.33a13.21,13.21,0,0,1,0,15.46v4.75h1.42a11.29,11.29,0,0,1,5.86,1.65V193.07s0,.26,0,.26V208a11.41,11.41,0,0,1,5.52,9.74v4a11.44,11.44,0,0,1-.07,1.28v32.62a4.33,4.33,0,0,1-1.7,3.43,6,6,0,0,0,5.34-1,4.33,4.33,0,0,1-.78-2.46V217.69a11.44,11.44,0,0,1,11.4-11.4H395a13.25,13.25,0,0,1,4.44-25.73Z"/><path class="cls-2" d="M349.64,180.55a13.18,13.18,0,0,1,8,2.69,10,10,0,0,0-9.66-7.49h-6.78a11.61,11.61,0,1,0-7.78,0h-6.75a10,10,0,0,0-10,10v21.59a11.43,11.43,0,0,1,6.65,10.35v3.4a3.62,3.62,0,0,0,.63-2v-26s0,.26,0,.26v60.22c0,.16,0,.33,0,.49a5.11,5.11,0,0,0,3.84,5,4.34,4.34,0,0,1-1.73-3.46V217.69a11.44,11.44,0,0,1,11.4-11.4h7.7a13.25,13.25,0,0,1,4.44-25.73Z"/><path class="cls-2" d="M311.77,206.29H304a13.25,13.25,0,1,0-8.88,0h-7.7a11.44,11.44,0,0,0-11.4,11.4v37.88a4.23,4.23,0,0,0,4,4.27,4.16,4.16,0,0,0,4.36-4.15V226s0,.29,0,.3v68.73q0,.28,0,.56c.3,8.18,12.62,7.84,12.62-.35V260.72a2,2,0,0,1,2-2h1.14a2,2,0,0,1,2,2v34.55c0,8.19,12.32,8.53,12.62.35q0-.28,0-.56V256a4.15,4.15,0,0,0,4.19,3.8,4.23,4.23,0,0,0,4.1-4.28V222.94a11.38,11.38,0,0,0,.07-1.28v-4A11.44,11.44,0,0,0,311.77,206.29Z"/><line class="cls-2" x1="314.81" y1="256.04" x2="314.81" y2="226.09"/><line class="cls-2" x1="175.65" y1="220.01" x2="175.65" y2="192.72"/><line class="cls-2" x1="218.42" y1="208.53" x2="218.42" y2="192.72"/><path class="cls-2" d="M176.05,219.62v-1.93a11.43,11.43,0,0,1,6.59-10.32v-17a9.9,9.9,0,0,0,.06-1.12v-3.48a10,10,0,0,0-10-10h-6.78a11.61,11.61,0,1,0-7.78,0H151.4a10,10,0,0,0-9.65,7.46,13.24,13.24,0,1,1,12.39,23.07h7.73a11.44,11.44,0,0,1,11.4,11.4v4a11.44,11.44,0,0,1-.07,1.28v32.62a4.33,4.33,0,0,1-1.76,3.49,5.1,5.1,0,0,0,3.93-5c0-.16,0-.33,0-.49V219.36a3.62,3.62,0,0,0,.68,1.82Z"/><path class="cls-2" d="M126.31,255.57V217.69a11.44,11.44,0,0,1,11.4-11.4h1.36v-4.8a13.21,13.21,0,0,1,.06-15.44v-.3a10,10,0,0,0-10-10h-6.78a11.61,11.61,0,1,0-7.78,0h-6.75a10,10,0,0,0-8.53,4.83c.22,0,.43,0,.65,0a13.22,13.22,0,0,1,5.2,25.4v.34h7a11.44,11.44,0,0,1,11.4,11.4v4a11.44,11.44,0,0,1-.07,1.28v32.62a4.33,4.33,0,0,1-.76,2.44,6,6,0,0,0,5.32,1A4.33,4.33,0,0,1,126.31,255.57Z"/></svg>