<svg id="Calque_1" data-name="Calque 1" xmlns="http://www.w3.org/2000/svg" viewBox="0 0 500 500"><defs><style>.cls-1{font-size:20px;font-family:Poppins-Regular, Poppins;letter-spacing:0.26em;}</style></defs><title>Plan de travail 1 copie 4</title><path d="M452.28,286.56H366.86V143.8h85.42ZM368,285.41h83.12V145H368Z"/><rect x="26.89" y="291.44" width="449.11" height="1.15"/><path d="M282.93,286.56H188v-80.8h94.95Zm-93.8-1.15h92.65V206.91H189.13Z"/><path d="M295,206.89H175.92l19.28-19.74h80.52l.17.17Zm-116.34-1.15H292.27l-17-17.44H195.68Z"/><path d="M136,144.61H51l14.31-10.22h56.37Zm-81.41-1.15h77.82l-11.09-7.92H65.65Z"/><path d="M250.53,286.56H220.38V255h30.15Zm-29-1.15h27.85V256.12H221.53Z"/><path d="M322.32,286.56h-32.5V260.07h32.5ZM291,285.41h30.2V261.22H291Z"/><path d="M360.09,286.56H327.6V260.07h32.5Zm-31.35-1.15h30.2V261.22h-30.2Z"/><path d="M360.06,257.46H346.52V231h13.53Zm-12.38-1.15h11.23V232.12H347.67Z"/><path d="M341.17,257.46H327.64V231h13.53Zm-12.38-1.15H340V232.12H328.79Z"/><path d="M303.39,257.46H289.86V231h13.53ZM291,256.32h11.23V232.12H291Z"/><path d="M322.28,257.46H308.75V231h13.53Zm-12.38-1.15h11.23V232.12H309.9Z"/><path d="M212.34,244.92H199.42v-27h12.92Zm-11.77-1.15h10.62v-24.7H200.57Z"/><path d="M241.92,244.92H229v-27h12.92Zm-11.77-1.15h10.62v-24.7H230.15Z"/><path d="M271.5,244.92H258.57v-27H271.5Zm-11.77-1.15h10.62v-24.7H259.72Z"/><path d="M188.87,285.89h-53.7V212.7h53.7Zm-52.55-1.15h51.4V213.85h-51.4Z"/><path d="M136,285.89H50.61V143.13H136Zm-84.27-1.15h83.12V144.28H51.76Z"/><path d="M452.28,286.56H366.86V143.8h85.42ZM368,285.41h83.12V145H368Z"/><path d="M79.23,172.56H62V155.33H79.23Zm-16.08-1.15H78.09V156.48H63.15Z"/><path d="M101.94,172.56H84.71V155.33h17.23Zm-16.08-1.15h14.93V156.48H85.86Z"/><path d="M124.64,172.56H107.41V155.33h17.23Zm-16.08-1.15h14.93V156.48H108.56Z"/><path d="M79.23,194.76H62V177.54H79.23Zm-16.08-1.15H78.09V178.68H63.15Z"/><path d="M101.94,194.76H84.71V177.54h17.23Zm-16.08-1.15h14.93V178.68H85.86Z"/><path d="M124.64,194.76H107.41V177.54h17.23Zm-16.08-1.15h14.93V178.68H108.56Z"/><path d="M79.23,217H62V199.74H79.23Zm-16.08-1.15H78.09V200.89H63.15Z"/><path d="M101.94,217H84.71V199.74h17.23Zm-16.08-1.15h14.93V200.89H85.86Z"/><path d="M124.64,217H107.41V199.74h17.23Zm-16.08-1.15h14.93V200.89H108.56Z"/><path d="M79.23,239.18H62V221.95H79.23ZM63.15,238H78.09V223.1H63.15Z"/><path d="M101.94,239.18H84.71V221.95h17.23ZM85.86,238h14.93V223.1H85.86Z"/><path d="M124.64,239.18H107.41V221.95h17.23ZM108.56,238h14.93V223.1H108.56Z"/><path d="M93.84,285.5H76.61V247.6H93.84Zm-16.08-1.15H92.69V248.75H77.76Z"/><path d="M110,285.5H92.8V247.6H110ZM94,284.36h14.93V248.75H94Z"/><path d="M155.56,285.89h-10V261h10Zm-8.81-1.15h7.66V262.15h-7.66Z"/><path d="M175.47,285.89h-10V261h10Zm-8.81-1.15h7.66V262.15h-7.66Z"/><path d="M175.42,247.6h-26.8v-9.19h26.8Zm-25.65-1.15h24.5v-6.89h-24.5Z"/><path d="M175.42,234.58h-26.8v-9.19h26.8Zm-25.65-1.15h24.5v-6.89h-24.5Z"/><path d="M367.67,286.56H282.25v-60h85.42Zm-84.27-1.15h83.12V227.73H283.4Z"/><polygon points="366.88 227.69 323.45 210.04 283.05 227.68 282.59 226.63 323.44 208.79 323.66 208.88 367.31 226.62 366.88 227.69"/><path d="M374.52,286.56h-7.66V143.8h7.66ZM368,285.41h5.36V145H368Z"/><path d="M399.33,182.14H381.15V157.48h18.18Zm-17-1.15h15.89V158.63H382.29Z"/><path d="M438,182.14H419.82V157.48H438ZM421,181h15.89V158.63H421Z"/><path d="M399.33,212.39H381.15V187.73h18.18Zm-17-1.15h15.89V188.88H382.29Z"/><path d="M438,212.39H419.82V187.73H438Zm-17-1.15h15.89V188.88H421Z"/><path d="M399.33,242.64H381.15V218h18.18Zm-17-1.15h15.89V219.13H382.29Z"/><path d="M438,242.64H419.82V218H438Zm-17-1.15h15.89V219.13H421Z"/><path d="M399.33,272.88H381.15V248.22h18.18Zm-17-1.15h15.89V249.37H382.29Z"/><path d="M438,272.88H419.82V248.22H438Zm-17-1.15h15.89V249.37H421Z"/><path d="M452.28,286.56h-7.66V143.8h7.66Zm-6.51-1.15h5.37V145h-5.37Z"/><rect x="409" y="151.76" width="1.15" height="126.85"/><text class="cls-1" transform="translate(178.58 405.15)">INTERAGIR<tspan x="-60.06" y="30">AVEC LES FAÇADES</tspan></text></svg>