<svg id="Calque_1" data-name="Calque 1" xmlns="http://www.w3.org/2000/svg" viewBox="0 0 500 500"><defs><style>.cls-1{font-size:20px;font-family:Poppins-Regular, Poppins;letter-spacing:0.26em;}.cls-2{fill:none;stroke:#000;stroke-miterlimit:10;stroke-width:1.53px;}</style></defs><title>Plan de travail 1 copie</title><text class="cls-1" transform="translate(207.46 376.28)">SCROLL<tspan x="-61.62" y="30">POUR INTERAGIR</tspan><tspan x="-61.39" y="60">AVEC LA STATUE</tspan></text><path class="cls-2" d="M322,199.36c35.12,3.16,58.4,8.7,58.4,15,0,9.82-56.58,17.79-126.39,17.79s-126.39-8-126.39-17.79c0-6.81,27.17-12.72,67.08-15.71"/><polygon points="326.41 206.12 327.56 205.11 322.57 199.44 328.58 194.87 327.66 193.65 320.33 199.22 326.41 206.12"/><path class="cls-2" d="M277.57,132.87h-15a25.68,25.68,0,1,0-17.21,0H230.43a22.17,22.17,0,0,0-22.1,22.1v73.42a8.2,8.2,0,0,0,7.67,8.27,8.05,8.05,0,0,0,8.44-8V171.15s0,.57.06.57v133.2q0,.54,0,1.08c.58,15.86,24.45,15.2,24.45-.67v-67a3.9,3.9,0,0,1,3.9-3.9h2.21a3.9,3.9,0,0,1,3.9,3.9v67c0,15.87,23.87,16.53,24.45.67q0-.54,0-1.08V229.31a8.05,8.05,0,0,0,8.13,7.37,8.21,8.21,0,0,0,7.95-8.29V165.16a22.05,22.05,0,0,0,.14-2.48V155A22.17,22.17,0,0,0,277.57,132.87Z"/><line class="cls-2" x1="283.45" y1="229.31" x2="283.45" y2="171.25"/></svg>