<svg id="Calque_1" data-name="Calque 1" xmlns="http://www.w3.org/2000/svg" viewBox="0 0 307 100"><defs><style>.cls-1{fill:none;stroke:#000;}</style></defs><title>sombre_protection</title><path class="cls-1" d="M62.15,44.93a11.91,11.91,0,0,1-5.07,4.29,18.32,18.32,0,0,1-7.92,1.58q-7,0-11.61-3.3t-5-9.67H45.67q.28,3.38,3,3.38a2.26,2.26,0,0,0,1.52-.5,1.79,1.79,0,0,0,.58-1.44,2.44,2.44,0,0,0-1.41-2.19,27.88,27.88,0,0,0-4.57-1.86,42.43,42.43,0,0,1-6.18-2.49A12.36,12.36,0,0,1,34.31,29a10.7,10.7,0,0,1-1.83-6.48,10.72,10.72,0,0,1,2-6.51,12.15,12.15,0,0,1,5.38-4.07,20.23,20.23,0,0,1,7.67-1.39q7,0,11.19,3.27t4.54,9.42H50q-.28-3.1-2.55-3.1a1.78,1.78,0,0,0-1.27.47,1.86,1.86,0,0,0-.5,1.41,2.37,2.37,0,0,0,1.41,2.08,29,29,0,0,0,4.41,1.86,47.4,47.4,0,0,1,6.23,2.63A12.82,12.82,0,0,1,62,32.38a10.61,10.61,0,0,1,1.86,6.46A11,11,0,0,1,62.15,44.93Z"/><path d="M97.48,13.1a19.15,19.15,0,0,1,7.29,7.18,20.16,20.16,0,0,1,2.69,10.36A20.16,20.16,0,0,1,104.77,41a19.29,19.29,0,0,1-7.31,7.2,21,21,0,0,1-20.28,0A19.48,19.48,0,0,1,69.83,41a20,20,0,0,1-2.72-10.36,20,20,0,0,1,2.72-10.36,19.28,19.28,0,0,1,7.34-7.18,21.3,21.3,0,0,1,20.31,0ZM81.63,24.24a9.59,9.59,0,0,0-2,6.4,9.49,9.49,0,0,0,2,6.34A8,8,0,0,0,93,37a9.5,9.5,0,0,0,2-6.34,9.59,9.59,0,0,0-2-6.4,8,8,0,0,0-11.36,0Z"/><path d="M159,11.19V50.42H146.8V30.86l-6,19.56H130.23l-6-19.56V50.42h-12.3V11.19H127l8.64,23.55L144,11.19Z"/><path class="cls-1" d="M196.36,33.71a9.55,9.55,0,0,1,2,6,9.7,9.7,0,0,1-3.41,8q-3.41,2.8-9.78,2.8H164.58V11.19h20q6,0,9.42,2.6a8.94,8.94,0,0,1,3.44,7.59,9.25,9.25,0,0,1-1.8,5.79,8.54,8.54,0,0,1-4.79,3.13A9.36,9.36,0,0,1,196.36,33.71Zm-19.48-7.23h4.77a3.82,3.82,0,0,0,2.47-.66,2.51,2.51,0,0,0,.8-2.05,2.67,2.67,0,0,0-.8-2.13,3.71,3.71,0,0,0-2.47-.69h-4.77Zm8.06,13.44a2.5,2.5,0,0,0,.8-2.08q0-2.83-3.27-2.83h-5.6v5.54h5.6A3.94,3.94,0,0,0,184.95,39.92Z"/><path d="M222.21,50.42l-7.43-14.08V50.42h-12.3V11.19h18.29a18.05,18.05,0,0,1,8.15,1.69,11.75,11.75,0,0,1,5.07,4.6A12.83,12.83,0,0,1,235.68,24a11.66,11.66,0,0,1-2.19,7,12,12,0,0,1-6.29,4.38l8.53,15Zm-7.43-22.28h4.88a3.85,3.85,0,0,0,2.66-.8,3.24,3.24,0,0,0,.89-2.52,3.24,3.24,0,0,0-.91-2.44,3.63,3.63,0,0,0-2.63-.89h-4.88Z"/><path d="M251.91,20.94v4.88h12.19v9.25H251.91v5.54h13.85v9.81H239.61V11.19h26.16v9.75Z"/><path class="cls-1" d="M12.92,79.67V90.15H2.57v-33H17q6.06,0,9.3,3.08a10.84,10.84,0,0,1,3.24,8.25,11.25,11.25,0,0,1-1.44,5.66,10.3,10.3,0,0,1-4.26,4A14.43,14.43,0,0,1,17,79.67Zm6.15-11.18q0-3-3.22-3H12.92v6.06h2.94Q19.07,71.51,19.07,68.48Z"/><path d="M49.41,90.15,43.16,78.32V90.15H32.82v-33H48.19A15.18,15.18,0,0,1,55,58.58a9.88,9.88,0,0,1,4.26,3.87A10.79,10.79,0,0,1,60.73,68a9.81,9.81,0,0,1-1.84,5.87,10.12,10.12,0,0,1-5.29,3.68l7.18,12.63ZM43.16,71.42h4.1a3.24,3.24,0,0,0,2.24-.68,3.25,3.25,0,0,0,0-4.17,3.06,3.06,0,0,0-2.21-.75h-4.1Z"/><path class="cls-1" d="M88.64,58.77a16.11,16.11,0,0,1,6.13,6,17.93,17.93,0,0,1,0,17.43,16.22,16.22,0,0,1-6.15,6.06,17.7,17.7,0,0,1-17.06,0,16.38,16.38,0,0,1-6.17-6.06,17.77,17.77,0,0,1,0-17.43,16.22,16.22,0,0,1,6.17-6,17.91,17.91,0,0,1,17.08,0ZM75.32,68.13a8.06,8.06,0,0,0-1.68,5.38,8,8,0,0,0,1.68,5.34,6.75,6.75,0,0,0,9.55,0,8,8,0,0,0,1.68-5.34,8.06,8.06,0,0,0-1.68-5.38,6.75,6.75,0,0,0-9.55,0Z"/><path d="M126.67,57.16v8.2h-8.76V90.15H107.56V65.36H98.9v-8.2Z"/><path d="M139.81,65.36v4.1h10.25v7.78H139.81V81.9h11.65v8.25h-22v-33h22v8.2Z"/><path class="cls-1" d="M178.42,58.44a14.17,14.17,0,0,1,5.5,4.54,16.47,16.47,0,0,1,2.82,6.85h-10.9a5.91,5.91,0,0,0-2.12-2.54,5.57,5.57,0,0,0-3.15-.91,4.93,4.93,0,0,0-4.12,2,8.38,8.38,0,0,0-1.51,5.27,8.38,8.38,0,0,0,1.51,5.27,4.93,4.93,0,0,0,4.12,2,5.57,5.57,0,0,0,3.15-.91,5.9,5.9,0,0,0,2.12-2.54h10.9a16.47,16.47,0,0,1-2.82,6.85,14.17,14.17,0,0,1-5.5,4.54,17.63,17.63,0,0,1-7.67,1.61,17.06,17.06,0,0,1-8.67-2.12,14.3,14.3,0,0,1-5.66-5.94,20.16,20.16,0,0,1,0-17.43A14.31,14.31,0,0,1,162.09,59a17.07,17.07,0,0,1,8.67-2.12A17.63,17.63,0,0,1,178.42,58.44Z"/><path d="M216.37,57.16v8.2h-8.76V90.15H197.27V65.36H188.6v-8.2Z"/><path d="M229.52,57.16v33H219.17v-33Z"/><path d="M258.78,58.77a16.11,16.11,0,0,1,6.13,6,17.93,17.93,0,0,1,0,17.43,16.22,16.22,0,0,1-6.15,6.06,17.7,17.7,0,0,1-17.06,0,16.38,16.38,0,0,1-6.17-6.06,17.77,17.77,0,0,1,0-17.43,16.22,16.22,0,0,1,6.17-6,17.91,17.91,0,0,1,17.08,0Zm-13.33,9.37a8.06,8.06,0,0,0-1.68,5.38,8,8,0,0,0,1.68,5.34,6.75,6.75,0,0,0,9.55,0,8,8,0,0,0,1.68-5.34A8.06,8.06,0,0,0,255,68.13a6.75,6.75,0,0,0-9.55,0Z"/><path class="cls-1" d="M302.54,90.15H292.19l-11-16.59V90.15H270.9v-33h10.35l11,16.87V57.16h10.35Z"/></svg>