<svg id="Calque_1" data-name="Calque 1" xmlns="http://www.w3.org/2000/svg" viewBox="0 0 480 384"><title>logo_noir</title><polygon points="323.02 131.15 323.07 131.15 322.9 -0.67 299.02 -0.79 299.17 112.04 299.13 112.04 299.18 150.02 285.11 112.06 265.75 112.08 251.84 150.09 251.73 63.91 225.76 63.95 204.54 117.71 182.77 64 156.71 64.03 156.82 147.98 156.87 151.82 157.01 264.42 180.77 264.71 180.62 151.79 180.69 151.79 180.64 113.81 194.71 151.78 214.07 151.75 227.99 113.75 228.09 199.92 254.06 199.88 275.28 146.12 297.05 199.83 323.11 199.8 323.02 131.15"/><polygon points="168.65 0.32 108.05 0.4 108.13 61.92 127.35 61.89 127.3 19.6 168.67 19.54 168.65 0.32"/><polygon points="352.52 203.13 352.57 244.3 312.89 244.35 312.92 263.57 371.82 263.49 371.74 203.11 352.52 203.13"/><path d="M62.11,324.47v59.36H52.29v-44.5l-17.17,44.5H26.58L9.33,339.33v44.5H-.41V324.47H11.38L31,371.87l19.3-47.4Z"/><path d="M109.16,323.53v60.29H99.43V323.53Z"/><path d="M178.25,383.83l-15-24.08h-6.92v24.08h-9.74V323.53h21.27q10.33,0,15.67,5t5.34,13.32a17,17,0,0,1-4,11.61q-4,4.53-11.49,5.81l15.8,24.51Zm-21.95-31h10.76q11.78,0,11.79-10.42a10.27,10.27,0,0,0-2.86-7.73q-2.86-2.77-8.92-2.78H156.31Z"/><path d="M259.21,370.76H233.76l-4.61,13.07H218.73l22.21-59.36h11.19l22.12,59.36H263.83Zm-2.73-7.52-10-28.18-10,28.18Z"/><path d="M352.64,328.31a24.9,24.9,0,0,1,9.48,14.43H351.88a16.37,16.37,0,0,0-6.45-7.77,19.14,19.14,0,0,0-10.63-2.9,19.53,19.53,0,0,0-10.12,2.65,18.24,18.24,0,0,0-7,7.52,24.56,24.56,0,0,0-2.52,11.44,25.55,25.55,0,0,0,2.56,11.87,17.8,17.8,0,0,0,7.22,7.56,21.74,21.74,0,0,0,10.8,2.6,19.05,19.05,0,0,0,12.9-4.65q5.38-4.65,6.49-12.77H333v-7.17h30.32v9.31a28.86,28.86,0,0,1-4.74,12.08,27.07,27.07,0,0,1-9.82,8.67,29.29,29.29,0,0,1-14,3.25,30.31,30.31,0,0,1-15.54-3.93,26.82,26.82,0,0,1-10.42-10.89,36.38,36.38,0,0,1,0-31.86,26.64,26.64,0,0,1,10.38-10.85,30.35,30.35,0,0,1,15.5-3.89Q345.47,323,352.64,328.31Z"/><path d="M408.5,331.39v18.28h22.2v7.52H408.5v18.7h24.77v7.94h-34.5V323.53h34.5v7.86Z"/><path d="M480.28,373.07v10.76h-11.1V373.07ZM480,321.65,478.74,365h-8.2l-1.28-43.3Z"/></svg>