<?xml version="1.0" encoding="utf-8"?>
<!-- Generator: Adobe Illustrator 21.1.0, SVG Export Plug-In . SVG Version: 6.00 Build 0)  -->
<svg version="1.1" id="Calque_1" xmlns="http://www.w3.org/2000/svg" xmlns:xlink="http://www.w3.org/1999/xlink" x="0px" y="0px"
	 viewBox="0 0 391 259" style="enable-background:new 0 0 391 259;" xml:space="preserve">
<style type="text/css">
	.st0{fill:none;stroke:#000000;stroke-width:10.2;stroke-miterlimit:10;}
</style>
<title>noir</title>
<path class="st0" d="M242.2,8.8c0-2-1.6-3.7-3.7-3.7c-0.6,0-1.3,0.2-1.8,0.5L127.4,68.7H10.5c-2,0-3.7,1.6-3.7,3.7l0,0v113.2
	c0,2,1.6,3.7,3.7,3.7l0,0h116.9l109.2,63.1c1.8,1,4,0.4,5-1.3c0.3-0.6,0.5-1.2,0.5-1.8L242.2,8.8z"/>
<line class="st0" x1="127.2" y1="67.9" x2="127.2" y2="188.5"/>
<line class="st0" x1="290.9" y1="66.3" x2="290.9" y2="194.1"/>
<line class="st0" x1="337" y1="39.6" x2="337" y2="220.8"/>
<line class="st0" x1="383.1" y1="17.1" x2="383.1" y2="243.3"/>
</svg>
